<?xml version="1.0" standalone="no"?>
<!DOCTYPE svg PUBLIC "-//W3C//DTD SVG 20010904//EN"
 "http://www.w3.org/TR/2001/REC-SVG-20010904/DTD/svg10.dtd">
<svg version="1.0" xmlns="http://www.w3.org/2000/svg"
 width="1343.000000pt" height="655.000000pt" viewBox="0 0 1343.000000 655.000000"
 preserveAspectRatio="xMidYMid meet">

<g transform="translate(0.000000,655.000000) scale(0.100000,-0.100000)"
fill="#000000" stroke="none">
<path d="M195 6445 c0 -39 3 -45 20 -44 11 0 14 3 8 6 -14 5 -18 33 -5 33 4 0
13 -9 20 -20 7 -11 17 -20 22 -20 6 0 3 11 -5 24 -12 18 -13 25 -4 28 23 8 1
38 -28 38 -26 0 -28 -2 -28 -45z m48 20 c1 -5 -6 -11 -15 -13 -11 -2 -18 3
-18 13 0 17 30 18 33 0z"/>
<path d="M478 6465 c-6 -7 3 -65 11 -65 7 0 7 58 -1 65 -2 3 -7 3 -10 0z"/>
<path d="M284 6446 c-8 -20 2 -46 17 -46 8 0 8 4 -1 15 -10 12 -9 15 5 15 9 0
15 5 13 12 -7 19 -27 21 -34 4z"/>
<path d="M334 6449 c-9 -15 12 -33 30 -26 9 4 16 13 16 22 0 17 -35 21 -46 4z"/>
<path d="M395 6430 c0 -16 5 -30 11 -30 6 0 9 13 6 30 -2 17 -7 30 -11 30 -3
0 -6 -13 -6 -30z"/>
<path d="M430 6456 c0 -2 7 -6 15 -10 8 -3 15 -1 15 4 0 6 -7 10 -15 10 -8 0
-15 -2 -15 -4z"/>
<path d="M515 6440 c-8 -25 1 -40 23 -40 15 0 15 2 2 11 -11 8 -12 12 -2 16
17 7 15 33 -2 33 -8 0 -17 -9 -21 -20z"/>
<path d="M570 6430 c0 -16 5 -30 10 -30 6 0 10 14 10 30 0 17 -4 30 -10 30 -5
0 -10 -13 -10 -30z"/>
<path d="M70 3240 l0 -3200 6670 0 6670 0 0 3200 0 3200 -6392 -2 -6393 -3
6388 -2 6387 -3 0 -3190 0 -3190 -6660 0 -6660 0 0 3189 0 3190 48 4 47 3 -52
2 -53 2 0 -3200z"/>
<path d="M439 6426 c9 -11 9 -15 -1 -19 -8 -4 -7 -6 5 -6 22 -1 22 25 1 33
-14 5 -15 4 -5 -8z"/>
<path d="M334 6393 c2 -10 11 -19 22 -20 18 -3 18 -2 -1 6 -19 9 -19 10 3 10
30 1 28 21 -2 21 -17 0 -24 -5 -22 -17z"/>
<path d="M207 6261 c15 -22 29 -36 31 -30 5 12 -36 69 -49 69 -6 0 2 -18 18
-39z"/>
<path d="M270 6260 c0 -6 5 -8 10 -5 6 3 10 -4 10 -17 0 -18 -2 -20 -10 -8 -8
13 -10 12 -10 -2 0 -12 8 -18 21 -18 16 0 20 5 17 27 -3 27 -38 48 -38 23z"/>
<path d="M330 6239 c0 -16 4 -29 9 -29 5 0 7 8 4 19 -3 10 0 22 6 25 7 5 11
-3 11 -18 0 -14 5 -26 11 -26 6 0 9 12 7 28 -2 20 -9 27 -25 28 -19 1 -23 -4
-23 -27z"/>
<path d="M388 6240 c2 -16 9 -30 14 -30 13 0 6 53 -8 57 -7 2 -9 -8 -6 -27z"/>
<path d="M437 6264 c-4 -4 -7 -18 -7 -31 0 -16 6 -23 18 -22 10 0 12 3 5 6
-18 7 -16 23 3 23 9 0 14 5 12 12 -5 14 -22 21 -31 12z"/>
<path d="M178 6213 c7 -3 16 -2 19 1 4 3 -2 6 -13 5 -11 0 -14 -3 -6 -6z"/>
<path d="M174 6157 c-3 -8 -4 -43 -2 -78 l3 -64 635 0 635 0 0 75 0 75 -633 3
c-526 2 -633 0 -638 -11z m1266 -67 l0 -70 -630 0 -630 0 0 70 0 70 630 0 630
0 0 -70z"/>
<path d="M178 5833 c6 -2 12 -20 12 -38 0 -18 -6 -36 -12 -38 -7 -3 5 -5 27
-5 22 0 30 3 18 5 -25 5 -31 28 -10 36 10 4 10 6 0 6 -22 2 -14 29 10 34 12 2
4 5 -18 5 -22 0 -34 -2 -27 -5z"/>
<path d="M455 5795 c0 -25 3 -45 8 -45 4 0 7 20 7 45 0 25 -3 45 -7 45 -5 0
-8 -20 -8 -45z"/>
<path d="M260 5781 c0 -38 17 -41 23 -3 l4 27 2 -27 c0 -16 6 -28 12 -28 6 0
9 12 7 28 -2 19 -9 28 -25 30 -20 3 -23 -1 -23 -27z"/>
<path d="M320 5781 c0 -17 5 -31 10 -31 6 0 10 11 10 24 0 14 -4 28 -10 31 -6
4 -10 -7 -10 -24z"/>
<path d="M360 5801 c0 -6 6 -8 14 -5 10 4 13 0 11 -13 -2 -10 -4 -20 -4 -23
-1 -3 -6 2 -11 10 -8 13 -10 12 -10 -2 0 -12 8 -18 21 -18 16 0 20 5 17 27 -3
26 -38 48 -38 24z"/>
<path d="M420 5780 c0 -16 5 -30 10 -30 6 0 10 14 10 30 0 17 -4 30 -10 30 -5
0 -10 -13 -10 -30z"/>
<path d="M174 5696 c-3 -7 -4 -40 -2 -72 l3 -59 635 0 635 0 0 70 0 70 -633 3
c-528 2 -633 0 -638 -12z m1266 -61 l0 -65 -630 0 -630 0 0 65 0 65 630 0 630
0 0 -65z"/>
<path d="M213 5368 c3 -20 0 -28 -12 -29 -10 0 -8 -4 7 -10 13 -5 20 -13 17
-19 -3 -5 1 -10 9 -10 20 0 19 5 -5 55 -16 34 -19 36 -16 13z"/>
<path d="M270 5340 c0 -11 7 -20 15 -20 8 0 19 9 25 20 9 18 8 20 -15 20 -18
0 -25 -5 -25 -20z m30 0 c0 -5 -4 -10 -10 -10 -5 0 -10 5 -10 10 0 6 5 10 10
10 6 0 10 -4 10 -10z"/>
<path d="M337 5354 c-4 -4 -7 -18 -7 -31 0 -16 6 -23 18 -22 10 0 12 3 5 6
-18 7 -16 23 3 23 9 0 14 5 12 12 -5 14 -22 21 -31 12z"/>
<path d="M178 5303 c7 -3 16 -2 19 1 4 3 -2 6 -13 5 -11 0 -14 -3 -6 -6z"/>
<path d="M270 5300 c0 -5 12 -10 26 -10 14 0 23 4 19 10 -3 6 -15 10 -26 10
-10 0 -19 -4 -19 -10z"/>
<path d="M278 5273 c6 -2 18 -2 25 0 6 3 1 5 -13 5 -14 0 -19 -2 -12 -5z"/>
<path d="M174 5247 c-3 -8 -4 -43 -2 -78 l3 -64 635 0 635 0 0 75 0 75 -633 3
c-526 2 -633 0 -638 -11z m1266 -67 l0 -70 -630 0 -630 0 0 70 0 70 630 0 630
0 0 -70z"/>
<path d="M178 4924 c6 -3 12 -21 12 -39 0 -18 -6 -36 -12 -39 -7 -3 3 -4 22
-3 34 2 35 3 35 42 0 39 -1 40 -35 42 -19 1 -29 0 -22 -3z m42 -19 c0 -8 -4
-15 -10 -15 -5 0 -10 7 -10 15 0 8 5 15 10 15 6 0 10 -7 10 -15z m2 -40 c0 -5
-5 -11 -11 -13 -6 -2 -11 4 -11 13 0 9 5 15 11 13 6 -2 11 -8 11 -13z"/>
<path d="M390 4887 c0 -43 2 -47 23 -47 20 0 23 4 19 30 -2 17 -8 30 -12 30
-4 0 -5 -11 -2 -25 2 -14 0 -25 -6 -25 -5 0 -10 16 -10 36 0 19 -3 38 -6 41
-3 4 -6 -15 -6 -40z"/>
<path d="M516 4916 c3 -8 -3 -16 -16 -19 -32 -8 -24 -51 10 -55 24 -3 25 -1
22 43 -2 25 -8 45 -13 45 -4 0 -6 -6 -3 -14z m-1 -56 c-5 -8 -11 -8 -17 -2 -6
6 -7 16 -3 22 5 8 11 8 17 2 6 -6 7 -16 3 -22z"/>
<path d="M614 4897 c-7 -21 -2 -49 11 -54 11 -3 12 53 2 63 -4 4 -9 0 -13 -9z"/>
<path d="M260 4870 c0 -16 5 -30 10 -30 6 0 10 14 10 30 0 17 -4 30 -10 30 -5
0 -10 -13 -10 -30z"/>
<path d="M295 4869 c0 -16 5 -29 12 -29 7 0 10 7 7 15 -4 8 -1 21 4 28 8 10 7
13 -6 14 -12 1 -17 -7 -17 -28z"/>
<path d="M350 4870 c0 -16 4 -30 9 -30 5 0 7 9 4 21 -4 12 0 25 8 30 11 7 10
9 -3 9 -13 0 -18 -8 -18 -30z"/>
<path d="M550 4891 c0 -6 6 -8 14 -5 10 4 13 0 11 -13 -2 -10 -4 -20 -4 -23
-1 -3 -6 2 -11 10 -8 13 -10 12 -10 -2 0 -12 8 -18 21 -18 16 0 20 5 17 27 -3
26 -38 48 -38 24z"/>
<path d="M654 4886 c-8 -20 2 -46 17 -46 8 0 8 4 -1 15 -10 12 -9 15 5 15 9 0
15 5 13 12 -7 19 -27 21 -34 4z"/>
<path d="M174 4787 c-3 -8 -4 -47 -2 -88 l3 -74 545 0 545 0 0 85 0 85 -543 3
c-448 2 -543 0 -548 -11z m1086 -77 l0 -80 -540 0 -540 0 0 80 0 80 540 0 540
0 0 -80z"/>
<path d="M1137 4754 c-10 -10 -9 -72 1 -78 5 -3 6 8 4 25 -4 28 -3 29 38 29
41 0 42 -1 38 -30 -3 -16 -1 -30 4 -30 5 0 8 19 6 43 -3 41 -4 42 -43 45 -23
2 -44 0 -48 -4z"/>
<path d="M232 4735 c-7 -8 -8 -15 -3 -15 5 0 12 -8 14 -17 3 -10 5 -3 6 15 1
36 1 37 -17 17z"/>
<path d="M263 4714 c-8 -22 13 -42 30 -25 10 10 9 11 -5 6 -12 -5 -18 -2 -18
8 0 9 8 18 18 20 16 4 16 5 -1 6 -10 0 -20 -6 -24 -15z"/>
<path d="M440 4719 c0 -6 4 -8 9 -4 5 3 11 -5 13 -17 3 -22 4 -22 9 3 4 19 1
25 -13 26 -10 1 -18 -3 -18 -8z"/>
<path d="M585 4721 c14 -7 15 -10 5 -10 -13 -1 -13 -3 -1 -10 11 -7 10 -10 -5
-14 -16 -4 -15 -5 4 -6 19 -1 23 3 20 21 -2 14 -11 24 -23 25 l-20 3 20 -9z"/>
<path d="M638 4723 c7 -3 16 -2 19 1 4 3 -2 6 -13 5 -11 0 -14 -3 -6 -6z"/>
<path d="M695 4721 c14 -7 15 -10 5 -10 -13 -1 -13 -3 -1 -10 11 -7 10 -10 -5
-14 -16 -4 -15 -5 4 -6 19 -1 23 3 20 21 -2 14 -11 24 -23 25 l-20 3 20 -9z"/>
<path d="M748 4723 c7 -3 16 -2 19 1 4 3 -2 6 -13 5 -11 0 -14 -3 -6 -6z"/>
<path d="M625 4700 c-7 -11 22 -26 32 -16 4 3 -2 6 -13 7 -18 0 -18 1 1 9 16
7 17 9 3 9 -9 1 -20 -4 -23 -9z"/>
<path d="M735 4700 c-7 -11 22 -26 32 -16 4 3 -2 6 -13 7 -18 0 -18 1 1 9 16
7 17 9 3 9 -9 1 -20 -4 -23 -9z"/>
<path d="M180 4313 c5 -10 15 -31 20 -47 16 -43 23 -24 9 23 -7 23 -18 41 -26
41 -10 0 -11 -4 -3 -17z"/>
<path d="M237 4284 c17 -51 29 -53 17 -2 -4 18 -7 36 -6 41 1 4 -4 7 -12 7
-13 0 -13 -6 1 -46z"/>
<path d="M300 4285 c0 -41 2 -45 25 -45 20 0 25 5 25 25 0 14 -7 28 -15 31 -8
4 -15 12 -15 20 0 8 -4 14 -10 14 -5 0 -10 -20 -10 -45z m27 -27 c-3 -7 -5 -2
-5 12 0 14 2 19 5 13 2 -7 2 -19 0 -25z"/>
<path d="M586 4315 c4 -9 0 -15 -9 -15 -17 0 -32 -34 -22 -50 3 -5 16 -10 28
-10 20 0 22 4 19 45 -2 25 -8 45 -13 45 -4 0 -6 -7 -3 -15z m4 -51 c0 -8 -4
-14 -10 -14 -5 0 -10 9 -10 21 0 11 5 17 10 14 6 -3 10 -13 10 -21z"/>
<path d="M930 4287 c0 -43 2 -47 23 -47 20 0 23 4 19 30 -2 17 -8 30 -12 30
-4 0 -5 -11 -2 -25 2 -14 0 -25 -6 -25 -5 0 -10 16 -10 36 0 19 -3 38 -6 41
-3 4 -6 -15 -6 -40z"/>
<path d="M1605 4319 c-4 -6 -4 -13 -1 -16 3 -4 6 -1 6 5 0 7 5 12 11 12 7 0 9
-9 6 -21 -4 -16 -3 -19 5 -11 12 12 4 42 -11 42 -5 0 -13 -5 -16 -11z"/>
<path d="M377 4294 c-4 -4 -7 -18 -7 -31 0 -16 6 -23 18 -22 10 0 12 3 5 6
-18 7 -16 23 3 23 9 0 14 5 12 12 -5 14 -22 21 -31 12z"/>
<path d="M420 4270 c0 -16 5 -30 10 -30 6 0 10 14 10 30 0 17 -4 30 -10 30 -5
0 -10 -13 -10 -30z"/>
<path d="M474 4286 c-8 -20 2 -46 17 -46 8 0 8 4 -1 15 -10 12 -9 15 5 15 9 0
15 5 13 12 -7 19 -27 21 -34 4z"/>
<path d="M624 4286 c-8 -22 3 -49 19 -43 6 2 12 14 12 27 0 27 -22 39 -31 16z
m26 -16 c0 -11 -4 -20 -10 -20 -5 0 -10 9 -10 20 0 11 5 20 10 20 6 0 10 -9
10 -20z"/>
<path d="M713 4275 c13 -27 33 -35 23 -9 -3 9 -6 20 -6 25 0 5 -6 9 -14 9 -11
0 -12 -5 -3 -25z"/>
<path d="M774 4286 c-8 -22 3 -49 19 -43 6 2 12 14 12 27 0 27 -22 39 -31 16z
m26 -16 c0 -11 -4 -20 -10 -20 -5 0 -10 9 -10 20 0 11 5 20 10 20 6 0 10 -9
10 -20z"/>
<path d="M832 4273 c2 -20 9 -29 26 -31 19 -3 22 1 22 27 0 38 -17 41 -23 4
l-4 -28 -2 28 c0 15 -6 27 -12 27 -6 0 -9 -12 -7 -27z"/>
<path d="M994 4288 c-5 -7 -2 -9 7 -6 10 4 15 -1 16 -16 0 -11 -1 -15 -4 -8
-3 6 -9 10 -14 6 -14 -8 -1 -24 20 -24 14 0 17 6 13 30 -4 30 -25 40 -38 18z"/>
<path d="M1062 4269 c6 -16 12 -28 15 -26 7 7 -8 57 -18 57 -4 0 -3 -14 3 -31z"/>
<path d="M1115 4280 c-8 -25 1 -40 23 -40 15 0 15 2 2 11 -11 8 -12 12 -2 16
17 7 15 33 -2 33 -8 0 -17 -9 -21 -20z"/>
<path d="M1200 4290 c0 -6 5 -8 10 -5 6 3 10 -4 10 -17 0 -18 -2 -20 -10 -8
-8 13 -10 12 -10 -2 0 -12 8 -18 21 -18 16 0 20 5 17 27 -3 27 -38 48 -38 23z"/>
<path d="M1264 4285 c-8 -20 2 -45 18 -44 10 0 10 2 1 6 -7 2 -13 13 -13 24 0
13 5 17 17 12 11 -4 14 -3 9 5 -10 17 -26 15 -32 -3z"/>
<path d="M1314 4285 c-8 -20 2 -45 18 -45 9 0 9 3 0 12 -18 18 -15 41 4 34 8
-3 12 -2 9 4 -9 15 -25 12 -31 -5z"/>
<path d="M1365 4280 c-8 -26 7 -45 30 -36 21 8 16 50 -7 54 -10 2 -19 -5 -23
-18z m27 -22 c-9 -9 -12 -7 -12 12 0 19 3 21 12 12 9 -9 9 -15 0 -24z"/>
<path d="M1428 4270 c3 -23 9 -30 26 -30 19 0 22 4 18 30 -2 17 -8 30 -12 30
-4 0 -5 -11 -2 -25 2 -15 0 -25 -7 -25 -6 0 -11 11 -11 25 0 14 -4 25 -8 25
-5 0 -7 -13 -4 -30z"/>
<path d="M1490 4271 c0 -27 4 -31 26 -31 22 0 25 4 22 28 -2 19 -9 28 -25 30
-20 3 -23 -1 -23 -27z m27 -13 c-3 -7 -5 -2 -5 12 0 14 2 19 5 13 2 -7 2 -19
0 -25z"/>
<path d="M1560 4270 c0 -16 4 -30 9 -30 5 0 7 9 4 21 -4 12 0 25 8 30 11 7 10
9 -3 9 -13 0 -18 -8 -18 -30z"/>
<path d="M325 4015 c0 -25 5 -45 10 -45 6 0 10 20 10 45 0 25 -4 45 -10 45 -5
0 -10 -20 -10 -45z"/>
<path d="M975 4015 c0 -29 4 -45 12 -45 7 0 10 7 6 16 -3 9 0 20 8 25 10 6 10
9 2 9 -22 0 -14 28 10 33 17 3 16 5 -8 6 -29 1 -30 0 -30 -44z"/>
<path d="M1618 4053 c7 -3 16 -2 19 1 4 3 -2 6 -13 5 -11 0 -14 -3 -6 -6z"/>
<path d="M468 4035 c-6 -7 3 -65 11 -65 7 0 7 58 -1 65 -2 3 -7 3 -10 0z"/>
<path d="M1636 4025 c4 -8 11 -15 16 -15 6 0 5 6 -2 15 -7 8 -14 15 -16 15 -2
0 -1 -7 2 -15z"/>
<path d="M1808 4035 c-6 -7 3 -65 11 -65 7 0 7 58 -1 65 -2 3 -7 3 -10 0z"/>
<path d="M366 4018 c3 -4 11 -5 19 -1 21 7 19 12 -4 10 -11 0 -18 -5 -15 -9z"/>
<path d="M434 4023 c4 -8 2 -13 -5 -13 -7 0 -4 -7 7 -16 19 -15 19 -16 -1 -9
-15 5 -17 3 -8 -6 17 -18 37 -1 21 18 -7 9 -11 18 -10 20 2 3 0 8 -4 11 -4 4
-4 1 0 -5z"/>
<path d="M505 4021 c-3 -6 0 -9 7 -6 9 4 14 -2 15 -15 1 -11 -3 -20 -8 -20 -6
0 -7 5 -4 10 3 6 1 10 -4 10 -6 0 -11 -7 -11 -15 0 -9 9 -15 24 -15 21 0 23 3
17 27 -8 29 -25 40 -36 24z"/>
<path d="M568 4023 c6 -2 18 -2 25 0 6 3 1 5 -13 5 -14 0 -19 -2 -12 -5z"/>
<path d="M615 4020 c4 -6 11 -8 16 -5 14 9 11 15 -7 15 -8 0 -12 -5 -9 -10z"/>
<path d="M655 4020 c-4 -6 1 -7 12 -3 17 6 17 5 1 -14 -27 -29 -23 -33 35 -33
49 0 54 2 53 23 -1 12 4 21 12 20 6 -2 12 1 12 5 0 5 -17 9 -38 9 -35 0 -38
-2 -34 -24 2 -13 -1 -23 -7 -23 -6 0 -11 11 -11 25 0 25 -23 35 -35 15z m81
-37 c-11 -11 -19 6 -11 24 8 17 8 17 12 0 3 -10 2 -21 -1 -24z m-56 7 c0 -5
-5 -10 -11 -10 -5 0 -7 5 -4 10 3 6 8 10 11 10 2 0 4 -4 4 -10z"/>
<path d="M1045 4021 c-3 -6 0 -9 7 -6 9 4 14 -2 15 -15 1 -11 -3 -20 -8 -20
-6 0 -7 5 -4 10 3 6 1 10 -4 10 -6 0 -11 -7 -11 -15 0 -11 12 -14 48 -13 26 1
39 3 30 6 -10 2 -18 13 -18 24 0 14 5 18 15 14 8 -3 15 -1 15 5 0 21 -34 3
-41 -21 l-6 -25 -4 24 c-4 26 -23 38 -34 22z"/>
<path d="M1169 4022 c11 -8 10 -11 -5 -15 -16 -4 -15 -5 4 -6 25 -1 26 20 1
27 -12 3 -12 2 0 -6z"/>
<path d="M1215 4021 c-3 -6 0 -8 9 -5 8 3 16 -1 19 -10 4 -14 5 -14 3 0 -1 20
-21 30 -31 15z"/>
<path d="M1264 4016 c-9 -23 3 -46 23 -45 17 1 17 2 1 6 -21 5 -24 43 -4 43 8
0 17 -8 20 -17 4 -14 4 -14 3 2 -3 24 -35 32 -43 11z"/>
<path d="M1324 4016 c-9 -23 3 -46 23 -45 17 1 17 2 1 6 -21 5 -24 43 -4 43 8
0 17 -8 20 -17 4 -14 4 -14 3 2 -3 24 -35 32 -43 11z"/>
<path d="M1700 4026 c0 -2 7 -7 16 -10 8 -3 12 -2 9 4 -6 10 -25 14 -25 6z"/>
<path d="M1748 4000 c3 -23 9 -30 26 -30 19 0 22 4 18 30 -2 17 -8 30 -12 30
-4 0 -5 -11 -2 -25 2 -15 0 -25 -7 -25 -6 0 -11 11 -11 25 0 14 -4 25 -8 25
-5 0 -7 -13 -4 -30z"/>
<path d="M1915 4021 c-3 -6 0 -8 9 -5 8 3 16 -1 19 -10 4 -14 5 -14 3 0 -1 20
-21 30 -31 15z"/>
<path d="M1964 4016 c-9 -23 3 -46 23 -45 17 1 17 2 1 6 -22 6 -24 23 -2 23 9
0 14 5 12 12 -7 19 -27 21 -34 4z"/>
<path d="M1386 3994 c-8 -21 -8 -24 5 -24 5 0 8 4 5 9 -4 5 -1 11 6 13 8 3 9
6 1 11 -6 4 -14 0 -17 -9z"/>
<path d="M568 3993 c7 -3 16 -2 19 1 4 3 -2 6 -13 5 -11 0 -14 -3 -6 -6z"/>
<path d="M360 3980 c0 -5 5 -10 11 -10 5 0 7 5 4 10 -3 6 -8 10 -11 10 -2 0
-4 -4 -4 -10z"/>
<path d="M1157 3979 c7 -7 15 -10 18 -7 3 3 -2 9 -12 12 -14 6 -15 5 -6 -5z"/>
<path d="M1700 3976 c7 -7 13 -7 20 0 6 6 3 10 -10 10 -13 0 -16 -4 -10 -10z"/>
<path d="M1860 3980 c-12 -8 -10 -10 8 -10 13 0 20 4 17 10 -7 12 -6 12 -25 0z"/>
<path d="M568 3973 c6 -2 18 -2 25 0 6 3 1 5 -13 5 -14 0 -19 -2 -12 -5z"/>
<path d="M1218 3973 c7 -3 16 -2 19 1 4 3 -2 6 -13 5 -11 0 -14 -3 -6 -6z"/>
<path d="M1648 3973 c7 -3 16 -2 19 1 4 3 -2 6 -13 5 -11 0 -14 -3 -6 -6z"/>
<path d="M1918 3973 c7 -3 16 -2 19 1 4 3 -2 6 -13 5 -11 0 -14 -3 -6 -6z"/>
<path d="M558 3948 c5 -5 16 -8 23 -6 8 3 3 7 -10 11 -17 4 -21 3 -13 -5z"/>
<path d="M183 3773 c-4 -11 1 -22 15 -31 28 -19 28 -36 1 -29 -16 4 -19 3 -11
-5 14 -14 42 -3 42 17 0 8 -9 20 -20 27 -27 17 -25 31 3 23 17 -5 19 -4 7 4
-21 15 -30 14 -37 -6z"/>
<path d="M257 3754 c-4 -4 -7 -18 -7 -31 0 -16 6 -23 18 -22 10 0 12 3 5 6
-18 7 -16 23 3 23 9 0 14 5 12 12 -5 14 -22 21 -31 12z"/>
<path d="M313 3730 c6 -16 17 -30 24 -30 8 0 7 9 -5 30 -22 39 -34 39 -19 0z"/>
<path d="M337 3496 c10 -13 19 -23 21 -21 7 6 -19 45 -29 45 -5 0 -2 -11 8
-24z"/>
<path d="M400 3509 c0 -5 5 -7 10 -4 6 3 10 8 10 11 0 2 -4 4 -10 4 -5 0 -10
-5 -10 -11z"/>
<path d="M651 3478 c-1 -27 3 -48 7 -48 4 0 6 17 4 38 -5 58 -10 62 -11 10z"/>
<path d="M1005 3475 c0 -27 5 -45 12 -45 6 0 9 8 6 19 -3 13 1 21 14 24 16 4
16 5 1 6 -26 2 -22 29 5 34 17 3 16 5 -8 6 -29 1 -30 0 -30 -44z"/>
<path d="M1281 3478 c-1 -27 3 -48 7 -48 4 0 6 17 4 38 -5 58 -10 62 -11 10z"/>
<path d="M448 3483 c7 -3 16 -2 19 1 4 3 -2 6 -13 5 -11 0 -14 -3 -6 -6z"/>
<path d="M490 3486 c0 -2 7 -7 16 -10 8 -3 12 -2 9 4 -6 10 -25 14 -25 6z"/>
<path d="M545 3480 c-2 -3 6 -6 18 -5 15 1 24 -5 27 -19 3 -12 15 -22 26 -24
18 -3 20 1 15 30 -5 32 -6 32 -9 6 -4 -34 -22 -37 -22 -4 0 18 -5 24 -25 24
-14 0 -27 -4 -30 -8z"/>
<path d="M685 3460 c0 -16 3 -30 8 -30 4 0 7 14 7 30 0 17 -3 30 -7 30 -5 0
-8 -13 -8 -30z"/>
<path d="M715 3460 c0 -26 4 -30 26 -30 23 0 25 3 21 30 -2 17 -8 30 -12 30
-4 0 -5 -11 -2 -25 2 -15 0 -25 -7 -25 -6 0 -11 11 -11 25 0 14 -3 25 -7 25
-5 0 -8 -13 -8 -30z"/>
<path d="M799 3482 c11 -8 10 -11 -5 -15 -16 -4 -15 -5 4 -6 25 -1 26 20 1 27
-12 3 -12 2 0 -6z"/>
<path d="M1101 3479 c8 -5 6 -9 -7 -12 -17 -4 -16 -5 3 -6 12 0 24 5 27 12 3
6 4 0 2 -15 -3 -25 0 -28 24 -28 21 0 26 5 26 23 -1 12 4 21 12 20 6 -2 12 1
12 5 0 5 -25 9 -55 9 -31 0 -50 -4 -44 -8z m55 -36 c-11 -11 -19 6 -11 24 8
17 8 17 12 0 3 -10 2 -21 -1 -24z"/>
<path d="M1225 3481 c-3 -6 0 -9 7 -6 9 4 14 -2 15 -15 1 -11 -3 -20 -8 -20
-6 0 -7 5 -4 10 3 6 1 10 -4 10 -6 0 -11 -7 -11 -15 0 -9 9 -15 24 -15 21 0
23 3 17 27 -8 29 -25 40 -36 24z"/>
<path d="M1317 3484 c-13 -13 -7 -24 14 -24 11 0 19 5 17 12 -5 14 -22 21 -31
12z"/>
<path d="M445 3460 c-3 -6 1 -7 9 -4 18 7 21 14 7 14 -6 0 -13 -4 -16 -10z"/>
<path d="M366 3447 c3 -10 9 -15 12 -12 3 3 0 11 -7 18 -10 9 -11 8 -5 -6z"/>
<path d="M547 3439 c7 -7 15 -10 18 -7 3 3 -2 9 -12 12 -14 6 -15 5 -6 -5z"/>
<path d="M787 3439 c7 -7 15 -10 18 -7 3 3 -2 9 -12 12 -14 6 -15 5 -6 -5z"/>
<path d="M1087 3439 c7 -7 15 -10 18 -7 3 3 -2 9 -12 12 -14 6 -15 5 -6 -5z"/>
<path d="M1317 3439 c7 -7 15 -10 18 -7 3 3 -2 9 -12 12 -14 6 -15 5 -6 -5z"/>
<path d="M328 3433 c7 -3 16 -2 19 1 4 3 -2 6 -13 5 -11 0 -14 -3 -6 -6z"/>
<path d="M448 3433 c6 -2 18 -2 25 0 6 3 1 5 -13 5 -14 0 -19 -2 -12 -5z"/>
<path d="M498 3433 c7 -3 16 -2 19 1 4 3 -2 6 -13 5 -11 0 -14 -3 -6 -6z"/>
<path d="M178 3213 c6 -2 12 -20 12 -38 0 -18 -6 -36 -12 -38 -7 -3 5 -5 27
-5 22 0 30 3 18 5 -25 5 -31 28 -10 36 10 4 10 6 0 6 -22 2 -14 29 10 34 12 2
4 5 -18 5 -22 0 -34 -2 -27 -5z"/>
<path d="M515 3175 c0 -25 5 -45 10 -45 6 0 9 19 7 45 -2 25 -7 45 -11 45 -3
0 -6 -20 -6 -45z"/>
<path d="M263 3165 c13 -27 33 -35 23 -9 -3 9 -6 20 -6 25 0 5 -6 9 -14 9 -11
0 -12 -5 -3 -25z"/>
<path d="M324 3176 c-8 -20 2 -46 17 -46 8 0 8 4 -1 15 -10 12 -9 15 5 15 9 0
15 5 13 12 -7 19 -27 21 -34 4z"/>
<path d="M404 3175 c-9 -22 3 -45 23 -45 15 0 15 1 -2 13 -18 14 -13 43 6 32
5 -4 9 -1 9 4 0 17 -30 13 -36 -4z"/>
<path d="M464 3176 c-8 -22 3 -49 19 -43 6 2 12 14 12 27 0 27 -22 39 -31 16z
m26 -16 c0 -11 -4 -20 -10 -20 -5 0 -10 9 -10 20 0 11 5 20 10 20 6 0 10 -9
10 -20z"/>
<path d="M554 3176 c-8 -22 3 -49 19 -43 6 2 12 14 12 27 0 27 -22 39 -31 16z
m26 -16 c0 -11 -4 -20 -10 -20 -5 0 -10 9 -10 20 0 11 5 20 10 20 6 0 10 -9
10 -20z"/>
<path d="M610 3160 c0 -16 5 -30 10 -30 6 0 10 14 10 30 0 17 -4 30 -10 30 -5
0 -10 -13 -10 -30z"/>
<path d="M272 3083 c49 -2 127 -2 175 0 49 1 9 3 -87 3 -96 0 -136 -2 -88 -3z"/>
<path d="M173 2990 c0 -47 2 -66 4 -42 2 23 2 61 0 85 -2 23 -4 4 -4 -43z"/>
<path d="M543 2990 c0 -47 2 -66 4 -42 2 23 2 61 0 85 -2 23 -4 4 -4 -43z"/>
<path d="M210 2985 l0 -55 150 0 150 0 0 55 0 55 -150 0 -150 0 0 -55z"/>
<path d="M272 2893 c49 -2 127 -2 175 0 49 1 9 3 -87 3 -96 0 -136 -2 -88 -3z"/>
<path d="M178 2714 c6 -3 12 -21 12 -39 0 -18 -6 -36 -12 -39 -7 -3 3 -4 22
-3 34 2 35 3 35 42 0 39 -1 40 -35 42 -19 1 -29 0 -22 -3z m42 -19 c0 -8 -4
-15 -10 -15 -5 0 -10 7 -10 15 0 8 5 15 10 15 6 0 10 -7 10 -15z m2 -40 c0 -5
-5 -11 -11 -13 -6 -2 -11 4 -11 13 0 9 5 15 11 13 6 -2 11 -8 11 -13z"/>
<path d="M595 2675 c0 -42 2 -45 26 -45 23 0 25 3 21 30 -2 17 -8 30 -12 30
-4 0 -5 -11 -2 -25 2 -15 0 -25 -7 -25 -6 0 -11 17 -11 40 0 22 -3 40 -7 40
-5 0 -8 -20 -8 -45z"/>
<path d="M260 2660 c0 -16 5 -30 10 -30 6 0 10 14 10 30 0 17 -4 30 -10 30 -5
0 -10 -13 -10 -30z"/>
<path d="M294 2676 c-9 -24 4 -48 23 -44 24 4 24 52 0 56 -9 2 -20 -4 -23 -12z
m26 -18 c0 -16 -3 -19 -11 -11 -6 6 -8 16 -5 22 11 17 16 13 16 -11z"/>
<path d="M355 2680 c-3 -5 -3 -14 0 -20 10 -17 32 -11 38 10 4 15 0 20 -13 20
-11 0 -22 -4 -25 -10z m25 -10 c0 -5 -4 -10 -10 -10 -5 0 -10 5 -10 10 0 6 5
10 10 10 6 0 10 -4 10 -10z"/>
<path d="M415 2659 c0 -16 5 -29 12 -29 7 0 10 7 7 15 -4 8 -1 21 4 28 8 10 7
13 -6 14 -12 1 -17 -7 -17 -28z"/>
<path d="M470 2680 c0 -6 5 -8 10 -5 6 3 10 -4 10 -17 0 -18 -2 -20 -10 -8 -8
13 -10 12 -10 -2 0 -12 8 -18 21 -18 16 0 20 5 17 27 -3 27 -38 48 -38 23z"/>
<path d="M530 2646 c0 -25 4 -46 10 -46 5 0 7 6 4 14 -3 8 3 16 16 19 30 8 24
51 -7 55 -21 3 -23 -1 -23 -42z m35 4 c-5 -8 -11 -8 -17 -2 -6 6 -7 16 -3 22
5 8 11 8 17 2 6 -6 7 -16 3 -22z"/>
<path d="M663 2665 c13 -27 33 -35 23 -9 -3 9 -6 20 -6 25 0 5 -6 9 -14 9 -11
0 -12 -5 -3 -25z"/>
<path d="M350 2635 c0 -3 10 -10 23 -16 l22 -10 -22 5 c-13 2 -23 0 -23 -6 0
-17 45 -4 48 15 3 12 -3 17 -22 17 -14 0 -26 -2 -26 -5z"/>
<path d="M174 2577 c-2 -7 -3 -71 -2 -143 l3 -129 655 0 655 0 0 140 0 140
-653 3 c-531 2 -654 0 -658 -11z m1306 -132 l0 -135 -650 0 -650 0 0 135 0
135 650 0 650 0 0 -135z"/>
<path d="M1425 2358 l-40 -43 43 40 c39 36 47 45 39 45 -2 0 -21 -19 -42 -42z"/>
<path d="M1444 2338 l-19 -23 23 19 c21 18 27 26 19 26 -2 0 -12 -10 -23 -22z"/>
<path d="M178 2084 c6 -3 12 -21 12 -39 0 -18 -6 -36 -12 -38 -7 -3 -3 -6 9
-6 16 -1 20 4 16 18 -3 13 2 20 17 24 36 9 22 42 -20 44 -19 1 -29 0 -22 -3z
m42 -19 c0 -8 -4 -15 -10 -15 -5 0 -10 7 -10 15 0 8 5 15 10 15 6 0 10 -7 10
-15z"/>
<path d="M375 2079 c-12 -18 -11 -79 0 -79 6 0 10 17 8 40 -1 24 2 38 8 35 5
-4 9 -1 9 4 0 14 -17 14 -25 0z"/>
<path d="M438 2050 c3 -25 0 -40 -7 -40 -6 0 -11 11 -11 25 0 14 -3 25 -7 25
-5 0 -8 -13 -8 -30 0 -25 4 -30 25 -30 24 0 25 3 22 45 -2 25 -7 45 -11 45 -3
0 -5 -18 -3 -40z"/>
<path d="M255 2029 c0 -16 5 -29 12 -29 7 0 10 7 7 15 -4 8 -1 21 4 28 8 10 7
13 -6 14 -12 1 -17 -7 -17 -28z"/>
<path d="M305 2040 c-8 -26 7 -45 30 -36 21 8 16 50 -7 54 -10 2 -19 -5 -23
-18z m27 -22 c-9 -9 -12 -7 -12 12 0 19 3 21 12 12 9 -9 9 -15 0 -24z"/>
<path d="M474 2046 c-8 -20 2 -46 17 -46 8 0 8 4 -1 15 -10 12 -9 15 5 15 9 0
15 5 13 12 -7 19 -27 21 -34 4z"/>
<path d="M555 2015 c0 -29 4 -45 12 -45 7 0 10 7 7 15 -4 9 0 15 9 15 8 0 17
7 21 15 9 24 -4 45 -28 45 -18 0 -21 -6 -21 -45z m35 15 c0 -11 -4 -20 -10
-20 -5 0 -10 9 -10 20 0 11 5 20 10 20 6 0 10 -9 10 -20z"/>
<path d="M620 2030 c0 -16 5 -30 10 -30 6 0 10 14 10 30 0 17 -4 30 -10 30 -5
0 -10 -13 -10 -30z"/>
<path d="M655 2040 c-8 -25 1 -40 23 -39 11 0 12 3 5 6 -7 2 -13 14 -13 24 0
11 5 17 10 14 6 -3 10 -1 10 4 0 19 -28 12 -35 -9z"/>
<path d="M710 2030 c0 -16 4 -30 9 -30 5 0 7 9 4 21 -4 12 0 25 8 30 11 7 10
9 -3 9 -13 0 -18 -8 -18 -30z"/>
<path d="M754 2030 c1 -17 7 -26 22 -28 18 -3 20 1 15 30 -5 32 -6 32 -9 6 -4
-34 -19 -37 -25 -5 -3 19 -4 19 -3 -3z"/>
<path d="M815 2029 c0 -16 5 -29 11 -29 6 0 10 10 10 23 -1 12 4 21 12 20 6
-2 12 1 12 6 0 5 -10 9 -22 9 -19 0 -23 -6 -23 -29z"/>
<path d="M865 2040 c-8 -25 1 -40 23 -40 15 0 15 2 2 11 -11 8 -12 12 -2 16
17 7 15 33 -2 33 -8 0 -17 -9 -21 -20z"/>
<path d="M393 1953 c114 -2 300 -2 415 0 114 1 20 2 -208 2 -228 0 -322 -1
-207 -2z"/>
<path d="M173 1880 c0 -36 2 -50 4 -32 2 17 2 47 0 65 -2 17 -4 3 -4 -33z"/>
<path d="M1023 1880 c0 -36 2 -50 4 -32 2 17 2 47 0 65 -2 17 -4 3 -4 -33z"/>
<path d="M1080 1913 c0 -6 8 -17 18 -24 16 -13 16 -13 2 6 -8 11 -16 22 -17
24 -2 2 -3 0 -3 -6z"/>
<path d="M1118 1890 c-3 -17 -1 -33 4 -36 4 -3 8 11 8 30 0 44 -6 47 -12 6z"/>
<path d="M1943 1885 c0 -22 2 -30 4 -17 2 12 2 30 0 40 -3 9 -5 -1 -4 -23z"/>
<path d="M2290 1911 c0 -5 -8 -12 -17 -14 -17 -4 -17 -5 0 -6 9 0 17 -7 17
-15 0 -8 -8 -17 -17 -19 -14 -4 -12 -5 5 -6 19 -1 22 4 22 34 0 19 -2 35 -5
35 -3 0 -5 -4 -5 -9z"/>
<path d="M240 1875 c0 -32 2 -35 28 -34 23 2 24 2 5 6 -13 2 -23 8 -23 13 0 5
10 11 23 13 l22 4 -22 2 c-13 0 -23 5 -23 10 0 5 10 12 23 14 19 4 18 4 -5 6
-26 1 -28 -2 -28 -34z"/>
<path d="M463 1875 c0 -22 2 -30 4 -17 2 12 2 30 0 40 -3 9 -5 -1 -4 -23z"/>
<path d="M482 1875 c0 -23 3 -30 5 -17 3 15 10 22 19 18 8 -3 14 -1 14 4 0 6
-6 10 -14 10 -8 0 -17 6 -19 13 -3 6 -5 -6 -5 -28z"/>
<path d="M1165 1891 c19 -8 18 -9 -5 -13 -24 -5 -24 -5 3 -7 32 -1 33 22 1 26
-18 3 -18 2 1 -6z"/>
<path d="M1201 1873 c2 -25 2 -26 6 -5 3 15 10 22 19 18 8 -3 14 -1 14 4 0 6
-9 10 -20 10 -15 0 -20 -6 -19 -27z"/>
<path d="M1265 1891 c-3 -6 0 -8 9 -5 9 4 16 -2 19 -18 5 -23 5 -23 4 1 -2 26
-21 39 -32 22z"/>
<path d="M1314 1875 c1 -12 9 -21 21 -22 14 -1 15 0 3 3 -9 3 -19 13 -21 22
-3 12 -4 11 -3 -3z"/>
<path d="M1370 1890 c0 -5 6 -7 14 -4 9 4 16 -3 19 -18 l4 -23 2 23 c1 27 18
29 24 2 4 -17 4 -17 3 2 -1 18 -8 23 -33 25 -18 2 -33 -2 -33 -7z"/>
<path d="M1495 1891 c14 -7 15 -10 5 -10 -13 -1 -13 -3 -1 -10 11 -7 10 -10
-5 -14 -16 -4 -15 -5 4 -6 19 -1 23 3 20 21 -2 14 -11 24 -23 25 l-20 3 20 -9z"/>
<path d="M1531 1873 c1 -22 2 -23 6 -8 3 11 10 23 17 27 7 5 5 8 -6 8 -13 0
-18 -7 -17 -27z"/>
<path d="M1583 1893 c18 -5 24 -29 8 -35 -5 -1 -3 -9 5 -16 12 -11 14 -7 14
23 0 30 -3 35 -22 34 -17 -1 -19 -2 -5 -6z"/>
<path d="M1624 1875 c1 -12 9 -21 21 -22 14 -1 15 0 3 3 -9 3 -19 13 -21 22
-3 12 -4 11 -3 -3z"/>
<path d="M1754 1885 c-8 -19 4 -35 24 -34 15 1 15 2 0 6 -10 2 -18 11 -18 18
0 7 8 16 18 18 16 4 16 5 -1 6 -10 0 -20 -6 -23 -14z"/>
<path d="M1848 1893 c7 -3 16 -2 19 1 4 3 -2 6 -13 5 -11 0 -14 -3 -6 -6z"/>
<path d="M1905 1891 c19 -8 18 -9 -5 -13 -24 -5 -24 -5 3 -7 32 -1 33 22 1 26
-18 3 -18 2 1 -6z"/>
<path d="M1964 1885 c-8 -19 3 -35 24 -34 14 0 13 2 -3 8 -19 8 -18 9 5 13
l25 5 -25 2 c-23 2 -24 3 -5 11 18 8 18 9 2 9 -10 1 -20 -6 -23 -14z"/>
<path d="M2020 1892 c0 -4 9 -8 19 -8 11 0 17 4 15 8 -3 4 -12 8 -20 8 -8 0
-14 -4 -14 -8z"/>
<path d="M2094 1885 c-8 -19 4 -35 24 -34 15 1 15 2 0 6 -10 2 -18 11 -18 18
0 7 8 16 18 18 16 4 16 5 -1 6 -10 0 -20 -6 -23 -14z"/>
<path d="M2150 1891 c0 -6 6 -8 14 -5 9 4 16 -3 19 -18 5 -22 5 -22 4 2 -2 24
-37 44 -37 21z"/>
<path d="M2218 1891 c11 -7 11 -9 -2 -14 -23 -9 -20 -27 4 -27 15 0 20 7 20
25 0 17 -5 25 -17 25 -14 0 -15 -2 -5 -9z"/>
<path d="M2314 1885 c-8 -19 4 -35 24 -34 15 1 15 2 0 6 -10 2 -18 11 -18 18
0 7 8 16 18 18 16 4 16 5 -1 6 -10 0 -20 -6 -23 -14z"/>
<path d="M318 1883 c7 -3 16 -2 19 1 4 3 -2 6 -13 5 -11 0 -14 -3 -6 -6z"/>
<path d="M356 1881 c-4 -5 3 -7 14 -4 23 6 26 13 6 13 -8 0 -17 -4 -20 -9z"/>
<path d="M406 1881 c-3 -5 3 -7 14 -4 14 4 20 0 20 -10 0 -13 -10 -15 -44 -13
-25 1 -43 -1 -40 -5 2 -4 23 -6 47 -6 35 2 42 5 42 22 0 21 -29 33 -39 16z"/>
<path d="M555 1881 c19 -8 18 -9 -5 -13 -24 -5 -24 -5 3 -7 32 -1 33 22 1 26
-18 3 -18 2 1 -6z"/>
<path d="M591 1863 c1 -22 2 -23 6 -8 3 11 10 23 17 27 7 5 5 8 -6 8 -13 0
-18 -7 -17 -27z"/>
<path d="M675 1881 l20 -10 -20 -1 -20 -1 20 -8 20 -8 -20 -5 c-18 -5 -17 -6
3 -7 19 -1 23 3 20 21 -2 14 -11 24 -23 25 l-20 3 20 -9z"/>
<path d="M711 1862 c2 -24 2 -25 6 -4 5 27 19 29 26 2 5 -20 37 -29 37 -10 0
5 -7 7 -15 4 -10 -4 -15 0 -15 11 0 11 5 15 15 11 8 -3 15 -1 15 3 0 5 -16 9
-35 9 -32 0 -35 -3 -34 -26z"/>
<path d="M801 1868 c-1 -22 4 -28 19 -28 11 0 20 4 20 10 0 5 -6 7 -14 4 -9
-4 -16 3 -19 18 -4 21 -4 20 -6 -4z"/>
<path d="M882 1868 c12 -31 23 -29 31 4 5 20 5 21 -7 6 -11 -15 -13 -15 -24 0
-9 13 -9 11 0 -10z"/>
<path d="M930 1881 c0 -6 7 -8 15 -5 10 4 15 0 15 -11 0 -11 -5 -15 -15 -11
-8 3 -15 1 -15 -5 0 -6 8 -9 18 -7 9 2 17 12 17 23 0 11 -8 21 -17 23 -10 2
-18 -1 -18 -7z"/>
<path d="M1848 1873 c7 -3 16 -2 19 1 4 3 -2 6 -13 5 -11 0 -14 -3 -6 -6z"/>
<path d="M318 1863 c7 -3 16 -2 19 1 4 3 -2 6 -13 5 -11 0 -14 -3 -6 -6z"/>
<path d="M1710 1859 c0 -5 5 -7 10 -4 6 3 10 8 10 11 0 2 -4 4 -10 4 -5 0 -10
-5 -10 -11z"/>
<path d="M2035 1860 c-16 -7 -17 -9 -3 -9 9 -1 20 4 23 9 7 11 7 11 -20 0z"/>
<path d="M1158 1853 c6 -2 18 -2 25 0 6 3 1 5 -13 5 -14 0 -19 -2 -12 -5z"/>
<path d="M1848 1853 c7 -3 16 -2 19 1 4 3 -2 6 -13 5 -11 0 -14 -3 -6 -6z"/>
<path d="M1898 1853 c6 -2 18 -2 25 0 6 3 1 5 -13 5 -14 0 -19 -2 -12 -5z"/>
<path d="M308 1843 c6 -2 18 -2 25 0 6 3 1 5 -13 5 -14 0 -19 -2 -12 -5z"/>
<path d="M548 1843 c6 -2 18 -2 25 0 6 3 1 5 -13 5 -14 0 -19 -2 -12 -5z"/>
<path d="M393 1803 c114 -2 300 -2 415 0 114 1 20 2 -208 2 -228 0 -322 -1
-207 -2z"/>
<path d="M178 1624 c6 -3 12 -21 12 -39 0 -18 -6 -36 -12 -38 -7 -3 -3 -6 9
-6 16 -1 20 4 16 18 -3 13 2 20 17 24 36 9 22 42 -20 44 -19 1 -29 0 -22 -3z
m42 -19 c0 -8 -4 -15 -10 -15 -5 0 -10 7 -10 15 0 8 5 15 10 15 6 0 10 -7 10
-15z"/>
<path d="M255 1585 c0 -42 2 -45 26 -45 23 0 25 3 21 30 -2 17 -8 30 -12 30
-4 0 -5 -11 -2 -25 2 -15 0 -25 -7 -25 -6 0 -11 17 -11 40 0 22 -3 40 -7 40
-5 0 -8 -20 -8 -45z"/>
<path d="M769 1588 c7 -50 34 -60 39 -15 2 19 -1 27 -12 27 -9 0 -16 7 -16 15
0 8 -4 15 -8 15 -5 0 -6 -19 -3 -42z m31 -18 c0 -11 -4 -20 -10 -20 -5 0 -10
9 -10 20 0 11 5 20 10 20 6 0 10 -9 10 -20z"/>
<path d="M324 1586 c-8 -22 3 -49 19 -43 6 2 12 14 12 27 0 27 -22 39 -31 16z
m26 -16 c0 -11 -4 -20 -10 -20 -5 0 -10 9 -10 20 0 11 5 20 10 20 6 0 10 -9
10 -20z"/>
<path d="M380 1571 c0 -27 4 -31 26 -31 22 0 25 4 22 28 -2 19 -9 28 -25 30
-20 3 -23 -1 -23 -27z m27 -13 c-3 -7 -5 -2 -5 12 0 14 2 19 5 13 2 -7 2 -19
0 -25z"/>
<path d="M457 1594 c-4 -4 -7 -18 -7 -31 0 -16 6 -23 18 -22 10 0 12 3 5 6
-18 7 -16 23 3 23 9 0 14 5 12 12 -5 14 -22 21 -31 12z"/>
<path d="M530 1571 c0 -27 4 -31 26 -31 22 0 25 4 22 28 -2 19 -9 28 -25 30
-20 3 -23 -1 -23 -27z m27 -13 c-3 -7 -5 -2 -5 12 0 14 2 19 5 13 2 -7 2 -19
0 -25z"/>
<path d="M604 1570 c1 -17 7 -26 22 -28 18 -3 20 1 15 30 -5 32 -6 32 -9 6 -4
-34 -19 -37 -25 -5 -3 19 -4 19 -3 -3z"/>
<path d="M665 1570 c0 -16 3 -30 8 -30 4 0 7 14 7 30 0 17 -3 30 -7 30 -5 0
-8 -13 -8 -30z"/>
<path d="M695 1569 c0 -24 4 -29 26 -29 22 0 25 3 21 29 -3 21 -9 29 -25 29
-18 0 -22 -6 -22 -29z m31 -16 c-11 -11 -19 6 -11 24 8 17 8 17 12 0 3 -10 2
-21 -1 -24z"/>
<path d="M834 1586 c-8 -20 2 -46 17 -46 8 0 8 4 -1 15 -10 12 -9 15 5 15 9 0
15 5 13 12 -7 19 -27 21 -34 4z"/>
<path d="M885 1569 c0 -16 5 -29 12 -29 7 0 10 7 7 15 -4 8 -1 21 4 28 8 10 7
13 -6 14 -12 1 -17 -7 -17 -28z"/>
<path d="M174 1486 c-3 -7 -4 -40 -2 -72 l3 -59 635 0 635 0 0 70 0 70 -633 3
c-528 2 -633 0 -638 -12z m1266 -61 l0 -65 -630 0 -630 0 0 65 0 65 630 0 630
0 0 -65z"/>
<path d="M178 1173 c6 -2 12 -20 12 -38 0 -18 -6 -36 -12 -38 -7 -3 -3 -6 9
-6 17 -1 21 3 16 15 -3 9 0 20 8 25 10 6 10 9 2 9 -7 0 -13 7 -13 16 0 11 6
15 20 11 11 -3 20 -1 20 4 0 5 -17 9 -37 8 -21 0 -32 -3 -25 -6z"/>
<path d="M420 1141 c0 -38 19 -59 41 -45 15 9 10 44 -6 50 -8 4 -15 12 -15 20
0 8 -4 14 -10 14 -5 0 -10 -18 -10 -39z m40 -21 c0 -11 -4 -20 -10 -20 -5 0
-10 9 -10 20 0 11 5 20 10 20 6 0 10 -9 10 -20z"/>
<path d="M611 1138 c0 -28 3 -48 10 -48 5 0 8 4 4 9 -3 5 -1 12 5 16 5 3 10
-1 10 -9 0 -9 7 -16 16 -16 13 0 11 5 -9 24 -14 13 -27 34 -30 47 -2 13 -5 3
-6 -23z"/>
<path d="M705 1135 c0 -25 3 -45 8 -45 4 0 7 20 7 45 0 25 -3 45 -7 45 -5 0
-8 -20 -8 -45z"/>
<path d="M841 1138 c0 -28 3 -48 10 -48 5 0 8 4 4 9 -3 5 -1 12 5 16 5 3 10
-1 10 -9 0 -9 7 -16 16 -16 13 0 11 5 -9 24 -14 13 -27 34 -30 47 -2 13 -5 3
-6 -23z"/>
<path d="M254 1138 c-5 -7 -2 -9 7 -6 10 4 15 -1 16 -16 0 -11 -1 -15 -4 -8
-3 6 -9 10 -14 6 -17 -10 -9 -24 14 -24 20 0 23 4 19 30 -4 30 -25 40 -38 18z"/>
<path d="M314 1135 c-9 -22 3 -45 23 -45 15 0 15 1 -2 13 -18 14 -13 43 6 32
5 -4 9 -1 9 4 0 17 -30 13 -36 -4z"/>
<path d="M377 1144 c-4 -4 -7 -18 -7 -31 0 -16 6 -23 18 -22 10 0 12 3 5 6
-18 7 -16 23 3 23 9 0 14 5 12 12 -5 14 -22 21 -31 12z"/>
<path d="M494 1136 c-8 -22 3 -49 19 -43 6 2 12 14 12 27 0 27 -22 39 -31 16z
m26 -16 c0 -11 -4 -20 -10 -20 -5 0 -10 9 -10 20 0 11 5 20 10 20 6 0 10 -9
10 -20z"/>
<path d="M554 1136 c-8 -22 3 -49 19 -43 6 2 12 14 12 27 0 27 -22 39 -31 16z
m26 -16 c0 -11 -4 -20 -10 -20 -5 0 -10 9 -10 20 0 11 5 20 10 20 6 0 10 -9
10 -20z"/>
<path d="M735 1120 c0 -16 5 -30 11 -30 6 0 9 13 6 30 -2 17 -7 30 -11 30 -3
0 -6 -13 -6 -30z"/>
<path d="M770 1121 c0 -27 4 -31 26 -31 22 0 25 4 22 28 -2 19 -9 28 -25 30
-20 3 -23 -1 -23 -27z m27 -13 c-3 -7 -5 -2 -5 12 0 14 2 19 5 13 2 -7 2 -19
0 -25z"/>
<path d="M174 1037 c-3 -8 -4 -43 -2 -78 l3 -64 635 0 635 0 0 75 0 75 -633 3
c-526 2 -633 0 -638 -11z m1266 -67 l0 -70 -630 0 -630 0 0 70 0 70 630 0 630
0 0 -70z"/>
<path d="M178 714 c6 -3 12 -21 12 -39 0 -18 -6 -36 -12 -38 -7 -3 -3 -6 9 -6
16 -1 20 4 16 18 -3 13 2 20 17 24 36 9 22 42 -20 44 -19 1 -29 0 -22 -3z m42
-19 c0 -8 -4 -15 -10 -15 -5 0 -10 7 -10 15 0 8 5 15 10 15 6 0 10 -7 10 -15z"/>
<path d="M636 706 c3 -7 -2 -16 -10 -19 -9 -4 -16 -18 -16 -32 0 -19 5 -25 23
-25 20 0 22 4 19 45 -2 25 -8 45 -13 45 -4 0 -6 -6 -3 -14z m4 -46 c0 -11 -4
-20 -10 -20 -5 0 -10 9 -10 20 0 11 5 20 10 20 6 0 10 -9 10 -20z"/>
<path d="M254 678 c-5 -7 -2 -9 7 -6 10 4 15 -1 16 -16 0 -11 -1 -15 -4 -8 -3
6 -9 10 -14 6 -17 -10 -9 -24 14 -24 20 0 23 4 19 30 -4 30 -25 40 -38 18z"/>
<path d="M310 676 c0 -8 7 -17 16 -20 14 -5 15 -4 5 8 -9 11 -9 15 1 19 8 4 7
6 -4 6 -10 1 -18 -5 -18 -13z"/>
<path d="M360 676 c0 -8 6 -17 13 -19 9 -4 8 -8 -3 -16 -13 -9 -13 -11 2 -11
12 0 16 8 16 30 -1 30 -28 45 -28 16z"/>
<path d="M408 673 c5 -10 12 -25 16 -33 3 -8 4 -3 2 13 -4 34 11 36 20 2 8
-32 23 -23 16 10 -3 20 -10 25 -34 25 -24 0 -27 -3 -20 -17z"/>
<path d="M494 676 c-9 -24 4 -48 23 -44 12 2 18 12 18 28 0 29 -32 41 -41 16z
m26 -18 c0 -16 -3 -19 -11 -11 -6 6 -8 16 -5 22 11 17 16 13 16 -11z"/>
<path d="M555 659 c0 -16 5 -29 12 -29 7 0 10 7 7 15 -4 8 -1 21 4 28 8 10 7
13 -6 14 -12 1 -17 -7 -17 -28z"/>
<path d="M310 640 c0 -6 7 -10 15 -10 8 0 15 2 15 4 0 2 -7 6 -15 10 -8 3 -15
1 -15 -4z"/>
<path d="M174 576 c-3 -7 -4 -40 -2 -72 l3 -59 635 0 635 0 0 70 0 70 -633 3
c-528 2 -633 0 -638 -12z m1266 -61 l0 -65 -630 0 -630 0 0 65 0 65 630 0 630
0 0 -65z"/>
<path d="M292 283 c59 -2 158 -2 220 0 62 1 14 3 -107 3 -121 0 -172 -2 -113
-3z"/>
<path d="M823 283 c75 -2 199 -2 275 0 75 1 13 3 -138 3 -151 0 -213 -2 -137
-3z"/>
<path d="M173 210 c0 -36 2 -50 4 -32 2 17 2 47 0 65 -2 17 -4 3 -4 -33z"/>
<path d="M633 210 c0 -36 2 -50 4 -32 2 17 2 47 0 65 -2 17 -4 3 -4 -33z"/>
<path d="M673 210 c0 -36 2 -50 4 -32 2 17 2 47 0 65 -2 17 -4 3 -4 -33z"/>
<path d="M1243 210 c0 -36 2 -50 4 -32 2 17 2 47 0 65 -2 17 -4 3 -4 -33z"/>
<path d="M243 233 c9 -2 25 -2 35 0 9 3 1 5 -18 5 -19 0 -27 -2 -17 -5z"/>
<path d="M423 205 c0 -22 2 -30 4 -17 2 12 2 30 0 40 -3 9 -5 -1 -4 -23z"/>
<path d="M740 224 c0 -9 9 -18 20 -21 26 -7 26 -20 0 -26 -18 -4 -18 -5 2 -3
29 1 36 26 9 33 -12 3 -21 10 -21 15 0 6 9 8 20 5 11 -3 18 -1 14 4 -9 15 -44
10 -44 -7z"/>
<path d="M950 231 c0 -5 -9 -11 -21 -14 -28 -7 -21 -41 9 -45 19 -3 22 1 22
32 0 20 -2 36 -5 36 -3 0 -5 -4 -5 -9z m0 -36 c0 -8 -7 -15 -15 -15 -8 0 -15
7 -15 15 0 8 7 15 15 15 8 0 15 -7 15 -15z"/>
<path d="M1110 202 c0 -18 4 -32 8 -32 9 0 8 47 -1 57 -4 3 -7 -8 -7 -25z"/>
<path d="M290 211 c0 -6 7 -8 15 -5 10 4 15 0 15 -11 0 -11 -5 -15 -15 -11 -8
3 -15 1 -15 -5 0 -6 8 -9 18 -7 9 2 17 12 17 23 0 11 -8 21 -17 23 -10 2 -18
-1 -18 -7z"/>
<path d="M373 204 c-8 -22 13 -42 30 -25 10 10 9 11 -5 6 -13 -5 -18 -2 -18
10 0 11 5 15 16 11 8 -3 12 -2 9 4 -9 15 -25 12 -32 -6z"/>
<path d="M444 205 c-8 -19 3 -35 24 -34 14 0 13 2 -3 8 -19 8 -18 9 5 13 l25
5 -25 2 c-23 2 -24 3 -5 11 18 8 18 9 2 9 -10 1 -20 -6 -23 -14z"/>
<path d="M515 211 l20 -10 -20 -1 -20 -1 20 -8 20 -8 -20 -5 c-18 -5 -17 -6 3
-7 19 -1 23 3 20 21 -2 14 -11 24 -23 25 l-20 3 20 -9z"/>
<path d="M804 206 c-8 -22 4 -36 29 -35 20 1 20 2 -3 9 -25 8 -25 8 -2 9 14 1
22 6 20 14 -7 18 -37 21 -44 3z m33 -2 c-3 -3 -12 -4 -19 -1 -8 3 -5 6 6 6 11
1 17 -2 13 -5z"/>
<path d="M861 193 c2 -25 2 -26 6 -5 3 15 10 22 19 18 8 -3 14 -1 14 4 0 6 -9
10 -20 10 -15 0 -20 -6 -19 -27z"/>
<path d="M1004 205 c-3 -8 -3 -19 1 -25 8 -13 35 -13 35 0 0 5 -7 7 -15 4 -10
-4 -15 0 -15 11 0 11 5 15 15 11 8 -3 15 -1 15 4 0 16 -30 12 -36 -5z"/>
<path d="M1075 211 l20 -10 -20 -1 -20 -1 20 -8 20 -8 -20 -5 c-18 -5 -17 -6
3 -7 19 -1 23 3 20 21 -2 14 -11 24 -23 25 l-20 3 20 -9z"/>
<path d="M1155 211 l20 -10 -20 -1 -20 -1 20 -8 20 -8 -20 -5 c-18 -5 -17 -6
3 -7 19 -1 23 3 20 21 -2 14 -11 24 -23 25 l-20 3 20 -9z"/>
<path d="M292 133 c59 -2 158 -2 220 0 62 1 14 3 -107 3 -121 0 -172 -2 -113
-3z"/>
<path d="M823 133 c75 -2 199 -2 275 0 75 1 13 3 -138 3 -151 0 -213 -2 -137
-3z"/>
</g>
</svg>
